
<svg xmlns="http://www.w3.org/2000/svg" version="1.1" xmlns:xlink="http://www.w3.org/1999/xlink" preserveAspectRatio="none" x="0px" y="0px" width="460px" height="100px" viewBox="0 0 460 100">
<defs>
<g id="logo_0_Layer0_0_FILL">
<path fill="#404040" stroke="none" d="
M 39.65 0
L 38.65 24.35 10.3 10.6 24.4 38.6 0 39.6 22.65 53.8 53.75 22.65 39.65 0
M 317.7 49.05
Q 317.7 32.45 299.65 32.45
L 276.95 32.45
Q 275.75 32.45 274.95 33.25 274.15 34.1 274.15 35.25
L 274.15 72.35
Q 274.15 73.5 275 74.35 275.85 75.15 277 75.15
L 282.6 75.15
Q 283.75 75.15 284.6 74.35 285.4 73.5 285.4 72.35
L 285.4 65.65 299.65 65.65
Q 317.7 65.65 317.7 49.05
M 285.4 40.85
L 296.25 40.85
Q 301.25 40.85 303.85 42.55 306.45 44.25 306.45 49.05 306.45 53.85 303.85 55.55 301.25 57.2 296.25 57.2
L 285.4 57.2 285.4 40.85
M 360.95 65.9
Q 360.45 66.4 360.45 67.25 360.45 75.75 376.8 75.75 393.2 75.75 393.2 66.15 393.2 62.65 390.9 60.4 388.55 58.1 385.25 57.05 381.95 56 378.65 55.35 375.3 54.65 373.05 53.75 370.7 52.85 370.7 51.55 370.7 48.65 376.6 48.65 380.9 48.65 382.35 50.5 383.8 52.3 385.95 52.3
L 390.4 52.3
Q 391.2 52.3 391.7 51.75 392.2 51.25 392.2 50.45 392.2 41.9 375.9 41.9 360.35 41.9 360.35 51.55 360.35 54.95 362.7 57.25 365 59.55 368.3 60.6 371.6 61.6 374.95 62.3 378.25 63 380.6 63.9 382.9 64.8 382.9 66.15 382.9 69 376.05 69 371.75 69 370.3 67.2 368.85 65.4 366.7 65.4
L 362.25 65.4
Q 361.45 65.4 360.95 65.9
M 352.1 46.2
Q 347.45 41.9 338.75 41.9 330 41.9 325.35 46.2 320.7 50.45 320.7 58.85 320.7 67.15 325.35 71.45 330 75.75 338.75 75.75 347.45 75.75 352.1 71.45 356.75 67.15 356.75 58.85 356.75 50.45 352.1 46.2
M 344.55 51.1
Q 346.4 53.5 346.4 58.8 346.4 64.1 344.55 66.55 342.7 69 338.75 69 334.75 69 332.9 66.55 331.05 64.1 331.05 58.8 331.05 53.5 332.9 51.1 334.75 48.65 338.75 48.65 342.7 48.65 344.55 51.1
M 429.35 45.45
Q 425.75 41.9 419.95 41.9 414.15 41.9 409 46.25
L 409 34.3
Q 409 33.5 408.5 32.95 408 32.45 407.2 32.45
L 400.55 32.45
Q 399.75 32.45 399.25 32.95 398.7 33.5 398.7 34.3
L 398.7 73.35
Q 398.7 74.1 399.25 74.65 399.75 75.15 400.55 75.15
L 407.2 75.15
Q 408 75.15 408.5 74.65 409 74.1 409 73.35
L 409 53.4
Q 413.3 49.1 417 49.1 422.7 49.1 422.7 56.25
L 422.7 73.35
Q 422.7 74.1 423.25 74.65 423.75 75.15 424.5 75.15
L 431.15 75.15
Q 431.95 75.15 432.5 74.65 433 74.1 433 73.35
L 433 56.25
Q 433 48.95 429.35 45.45 Z"/>

<path fill="#A61717" stroke="none" d="
M 57.65 25.65
Q 57.4 25.65 57.3 25.65
L 26.45 56.45
Q 26.45 56.6 26.45 56.8 26.45 60 27 62.95 28.7 72 35.55 78.85 44.7 88 57.65 88 70.55 88 79.65 78.85 88.8 69.75 88.8 56.8 88.8 43.9 79.65 34.75 72.8 27.9 63.75 26.2 60.8 25.65 57.65 25.65
M 82.3 48.2
Q 83.3 50.9 83.3 54 83.3 60.5 78.6 65.15 74 69.85 67.45 69.85 60.95 69.85 56.2 65.15 51.55 60.5 51.55 54 51.55 47.35 56.2 42.7 60.95 38.1 67.45 38.1 68.5 38.1 69.5 38.25 74.7 38.8 78.6 42.7 81.1 45.15 82.3 48.2
M 60.2 43.95
Q 58.05 46.3 58.05 49.45 58.05 52.65 60.2 54.9 62.55 57.2 65.8 57.2 69.05 57.2 71.3 54.9 73.55 52.65 73.55 49.45 73.55 48 73.1 46.65 72.4 45.1 71.3 43.95 69.3 42 66.8 41.7 66.35 41.7 65.8 41.7 62.55 41.7 60.2 43.95
M 63.6 43.25
Q 63.8 43.25 64 43.25 64.95 43.4 65.7 44.15 66.15 44.6 66.4 45.2 66.6 45.7 66.6 46.25 66.6 47.5 65.7 48.35 64.85 49.25 63.6 49.25 62.35 49.25 61.4 48.35 60.6 47.5 60.6 46.25 60.6 45.05 61.4 44.15 62.35 43.25 63.6 43.25
M 157.4 49.05
Q 157.4 32.45 139.35 32.45
L 116.65 32.45
Q 115.45 32.45 114.65 33.25 113.85 34.1 113.85 35.25
L 113.85 72.35
Q 113.85 73.5 114.7 74.35 115.55 75.15 116.7 75.15
L 122.3 75.15
Q 123.45 75.15 124.3 74.35 125.1 73.5 125.1 72.35
L 125.1 65.65 139.35 65.65
Q 157.4 65.65 157.4 49.05
M 125.1 40.85
L 135.95 40.85
Q 140.95 40.85 143.55 42.55 146.15 44.25 146.15 49.05 146.15 53.85 143.55 55.55 140.95 57.2 135.95 57.2
L 125.1 57.2 125.1 40.85
M 162.9 43.75
Q 162.4 44.25 162.4 45.05
L 162.4 73.35
Q 162.4 74.15 162.9 74.65 163.4 75.15 164.2 75.15
L 170.85 75.15
Q 171.65 75.15 172.2 74.65 172.7 74.15 172.7 73.35
L 172.7 45.05
Q 172.7 44.3 172.2 43.8 171.7 43.25 170.85 43.25
L 164.2 43.25
Q 163.45 43.25 162.9 43.75
M 167.45 20.55
Q 164.3 20.55 162.1 22.75 159.9 24.95 159.9 28.1 159.9 31.25 162.1 33.45 164.3 35.65 167.45 35.65 170.6 35.65 172.8 33.45 175 31.25 175 28.1 175 24.95 172.8 22.75 170.6 20.55 167.45 20.55
M 212.45 45.15
Q 213.4 43.9 212.55 42.9 212.2 42.5 211.55 42.5
L 205.05 42.5
Q 202.2 42.5 200.45 45.15
L 195.5 52.65 190.55 45.15
Q 188.8 42.5 185.9 42.5
L 179.45 42.5
Q 178.75 42.5 178.4 42.9 177.6 43.9 178.55 45.15
L 188.2 58.8 177.85 72.55
Q 177.35 73.05 177.35 73.5 177.35 73.95 177.5 74.25 177.75 75.15 178.75 75.15
L 185.1 75.15
Q 187.85 75.15 189.75 72.55
L 195.5 64.8 201.2 72.55
Q 203.1 75.15 205.85 75.15
L 212.2 75.15
Q 213.25 75.15 213.45 74.25 213.6 74 213.6 73.55 213.6 73.05 213.1 72.55
L 202.75 58.8 212.45 45.15
M 249.35 67.25
Q 249.35 66.4 248.85 65.9 248.3 65.4 247.5 65.4
L 243.05 65.4
Q 240.9 65.4 239.45 67.2 238 69 234.05 69 230.1 69 228.3 67.3 226.5 65.65 226.2 62
L 248.6 62
Q 249.4 62 249.95 61.5 250.45 60.95 250.45 60.15
L 250.45 58.45
Q 250.45 50.45 245.85 46.2 241.3 41.9 233.1 41.9 224.9 41.9 220.3 46.3 215.65 50.7 215.65 58.9 215.65 67.05 220.25 71.4 224.85 75.75 233.05 75.75 249.35 75.8 249.35 67.25
M 239.95 55.7
L 226.1 55.7
Q 226.5 48.65 233.1 48.65 239.65 48.65 239.95 55.7
M 266.2 34.3
Q 266.2 33.5 265.7 32.95 265.2 32.45 264.4 32.45
L 257.75 32.45
Q 256.95 32.45 256.45 32.95 255.9 33.5 255.9 34.3
L 255.9 73.35
Q 255.9 74.1 256.45 74.65 256.95 75.15 257.75 75.15
L 264.4 75.15
Q 265.2 75.15 265.7 74.65 266.2 74.1 266.2 73.35
L 266.2 34.3 Z"/>

<path fill="#FFFFFF" stroke="none" d="
M 64 43.25
Q 63.8 43.25 63.6 43.25 62.35 43.25 61.4 44.15 60.6 45.05 60.6 46.25 60.6 47.5 61.4 48.35 62.35 49.25 63.6 49.25 64.85 49.25 65.7 48.35 66.6 47.5 66.6 46.25 66.6 45.7 66.4 45.2 66.15 44.6 65.7 44.15 64.95 43.4 64 43.25 Z"/>
</g>
</defs>

<g transform="matrix( 1, 0, 0, 1, 0,6) ">
<g transform="matrix( 1, 0, 0, 1, 0,0) ">
<use xlink:href="#logo_0_Layer0_0_FILL"/>
</g>
</g>
</svg>
